<svg version="1.1" xmlns="http://www.w3.org/2000/svg" style="display: block;" viewBox="0 0 2048 1071" width="1408" height="736" preserveAspectRatio="none">
<path transform="translate(0,0)" fill="rgb(255,255,255)" d="M 0 0 L 2048 0 L 2048 1071 L 0 1071 L 0 0 z"/>
<path transform="translate(0,0)" fill="rgb(167,166,166)" d="M 718.963 253.345 C 728.094 250.905 854.1 252.12 863.179 256.623 C 866.792 258.414 886.927 306.046 891.304 315.976 L 932.013 408.66 L 966.762 488.601 C 971.972 500.57 978.989 515.1 983.531 526.905 C 1000.98 565.535 1018.15 604.289 1035.03 643.165 C 1041.46 657.934 1052.78 686.402 1059.78 699.758 C 1066.42 688.408 1074.45 669.318 1079.95 656.897 C 1090.91 631.775 1102.03 606.724 1113.3 581.744 C 1127.82 547.118 1143.6 512.877 1158.25 478.291 C 1162.69 467.811 1167.19 457.766 1170.32 446.761 C 1176.48 455.011 1178.47 458.06 1181.16 468.311 C 1182.01 471.553 1181.98 475.616 1183.6 478.027 L 1166.27 518.177 C 1169.39 519.156 1169.8 519.104 1173.02 518.504 L 1174.09 517.455 C 1183 515.653 1215.98 508.679 1222.78 510.923 L 1132.1 721.092 L 1104.34 784.617 C 1101.29 791.601 1088.07 825.981 1081.89 827.64 C 1071.45 830.445 993.291 834.932 989.314 829.804 L 987.386 831.755 C 986.578 831.323 986.211 831.32 985.874 830.732 C 980.604 828.352 969.647 823.609 966.993 818.951 C 958.924 804.787 951.791 787.731 945.087 772.869 L 904.6 683.149 L 796.965 444.037 C 776.272 397.716 755.733 351.278 734.82 305.042 C 731.459 297.533 727.198 291.079 722.088 284.682 C 715.875 276.907 700.306 270.567 705.684 258.778 C 708.92 255.755 714.566 254.624 718.963 253.345 z"/>
<path transform="translate(0,0)" fill="rgb(214,214,214)" d="M 718.963 253.345 C 728.094 250.905 854.1 252.12 863.179 256.623 C 866.792 258.414 886.927 306.046 891.304 315.976 L 932.013 408.66 L 966.762 488.601 C 971.972 500.57 978.989 515.1 983.531 526.905 C 958.203 532.079 932.264 532.475 906.613 530.242 C 897.533 529.451 860.285 521.987 855.322 522.953 C 851.969 519.639 840.467 490.688 837.662 484.281 L 778.578 350.598 C 769.148 329.475 758.477 303.633 746.629 283.797 C 743.648 278.807 723.924 262.553 718.517 259.5 C 718.528 257.578 718.796 255.293 718.963 253.345 z"/>
<path transform="translate(0,0)" fill="rgb(45,46,47)" d="M 718.963 253.345 C 718.796 255.293 718.528 257.578 718.517 259.5 C 723.924 262.553 743.648 278.807 746.629 283.797 C 758.477 303.633 769.148 329.475 778.578 350.598 L 837.662 484.281 C 840.467 490.688 851.969 519.639 855.322 522.953 L 855.019 524.192 L 850.339 528.168 L 948.23 745.874 C 952.051 754.317 985.37 825.638 985.874 830.732 C 980.604 828.352 969.647 823.609 966.993 818.951 C 958.924 804.787 951.791 787.731 945.087 772.869 L 904.6 683.149 L 796.965 444.037 C 776.272 397.716 755.733 351.278 734.82 305.042 C 731.459 297.533 727.198 291.079 722.088 284.682 C 715.875 276.907 700.306 270.567 705.684 258.778 C 708.92 255.755 714.566 254.624 718.963 253.345 z"/>
<path transform="translate(0,0)" fill="rgb(255,255,255)" d="M 718.517 259.5 C 723.924 262.553 743.648 278.807 746.629 283.797 C 758.477 303.633 769.148 329.475 778.578 350.598 L 837.662 484.281 C 840.467 490.688 851.969 519.639 855.322 522.953 L 855.019 524.192 L 850.339 528.168 C 815.702 454.884 784.435 379.321 750.405 305.7 C 742.956 289.583 731.886 278.511 720.084 265.724 C 718.803 264.336 718.612 261.332 718.517 259.5 z"/>
<path transform="translate(0,0)" fill="rgb(127,126,126)" d="M 1113.3 581.744 C 1127.82 547.118 1143.6 512.877 1158.25 478.291 C 1162.69 467.811 1167.19 457.766 1170.32 446.761 C 1176.48 455.011 1178.47 458.06 1181.16 468.311 C 1182.01 471.553 1181.98 475.616 1183.6 478.027 L 1166.27 518.177 C 1153.09 549.385 1139.7 580.505 1126.1 611.535 C 1120.41 604.428 1117.39 590.575 1113.3 581.744 z"/>
<path transform="translate(0,0)" fill="rgb(45,46,47)" d="M 1113.3 581.744 C 1117.39 590.575 1120.41 604.428 1126.1 611.535 C 1123.15 618.485 1120.29 625.475 1117.53 632.503 C 1106.89 650.564 1099.3 678.084 1089.31 697.391 C 1081.26 712.939 1067.29 720.613 1059.78 699.758 C 1066.42 688.408 1074.45 669.318 1079.95 656.897 C 1090.91 631.775 1102.03 606.724 1113.3 581.744 z"/>
<path transform="translate(0,0)" fill="rgb(214,214,214)" d="M 855.019 524.192 C 869.416 553.959 883.186 587.404 896.41 617.96 L 954.868 751.985 C 965.785 776.996 977.198 805.774 989.314 829.804 L 987.386 831.755 C 986.578 831.323 986.211 831.32 985.874 830.732 C 985.37 825.638 952.051 754.317 948.23 745.874 L 850.339 528.168 L 855.019 524.192 z"/>
<path transform="translate(0,0)" fill="rgb(214,214,214)" d="M 1166.27 518.177 C 1169.39 519.156 1169.8 519.104 1173.02 518.504 L 1146.14 579.471 C 1139.05 595.42 1133.17 611.821 1122.31 625.319 C 1120.13 628.022 1120.71 630.512 1117.53 632.503 C 1120.29 625.475 1123.15 618.485 1126.1 611.535 C 1139.7 580.505 1153.09 549.385 1166.27 518.177 z"/>
<path transform="translate(0,0)" fill="rgb(214,214,214)" d="M 1182.81 257.065 C 1204.28 256.335 1312.74 255.566 1327.04 260.358 C 1330.69 264.592 1327.56 267.873 1325.57 272.545 C 1320.86 283.581 1316.07 294.589 1311.32 305.608 L 1253.37 440.131 C 1244.24 461.199 1230.46 490.315 1222.78 510.923 C 1215.98 508.679 1183 515.653 1174.09 517.455 L 1173.02 518.504 C 1169.8 519.104 1169.39 519.156 1166.27 518.177 L 1183.6 478.027 C 1181.98 475.616 1182.01 471.553 1181.16 468.311 C 1178.47 458.06 1176.48 455.011 1170.32 446.761 C 1176.15 429.406 1173.71 405.376 1161.46 391.522 C 1147.96 376.259 1126.49 377.699 1107.92 376.747 C 1113.56 360.56 1124.59 337.369 1131.91 321.079 C 1139.89 303.308 1149.55 279.774 1158.37 262.924 C 1166.03 260.161 1174.83 258.588 1182.81 257.065 z"/>
<path transform="translate(0,0)" fill="rgb(45,46,47)" d="M 1182.81 257.065 C 1180.84 264.182 1170.46 285.337 1167.11 293.131 C 1155.75 319.522 1142.65 346.447 1132.21 373.177 C 1140.09 373.5 1154.02 373.679 1161.36 374.935 C 1170.62 377.678 1179.17 381.568 1185.05 389.545 C 1205.78 417.651 1195.4 449.962 1183.6 478.027 C 1181.98 475.616 1182.01 471.553 1181.16 468.311 C 1178.47 458.06 1176.48 455.011 1170.32 446.761 C 1176.15 429.406 1173.71 405.376 1161.46 391.522 C 1147.96 376.259 1126.49 377.699 1107.92 376.747 C 1113.56 360.56 1124.59 337.369 1131.91 321.079 C 1139.89 303.308 1149.55 279.774 1158.37 262.924 C 1166.03 260.161 1174.83 258.588 1182.81 257.065 z"/>
<path transform="translate(0,0)" fill="rgb(255,255,255)" d="M 1161.36 374.935 L 1157.24 372.373 L 1157.7 371.61 C 1193.91 375.025 1206.53 401.74 1203.79 434.296 C 1201.28 464.187 1182.75 490.343 1174.09 517.455 L 1173.02 518.504 C 1169.8 519.104 1169.39 519.156 1166.27 518.177 L 1183.6 478.027 C 1195.4 449.962 1205.78 417.651 1185.05 389.545 C 1179.17 381.568 1170.62 377.678 1161.36 374.935 z"/>
</svg>